<svg xmlns="http://www.w3.org/2000/svg" viewBox="0 0 40 40"><rect width="40" height="40" rx="8" style="fill:#fff"/><path d="M10.80816,10.78691a13.00455,13.00455,0,0,1,15.12158-2.378l-1.81261,4.37993A8.289,8.289,0,0,0,13.64029,25.30342q.23421.27911.49446.54066A8.28986,8.28986,0,0,0,27.218,15.90855L31.538,13.98533a13.00144,13.00144,0,1,1-20.73052-3.19842Z" style="fill:#3f3b3a;fill-rule:evenodd"/><path d="M24.57125,13.05756a8.39038,8.39038,0,0,1,2.33961,2.3331l5.84252-2.73323a14.52912,14.52912,0,0,0-5.43263-5.48858l-2.7495,5.88806Z" style="fill:#15ae67;fill-rule:evenodd"/></svg>